<mxfile host="app.diagrams.net" agent="Mozilla/5.0 (Macintosh; Intel Mac OS X 10_15_7) AppleWebKit/605.1.15 (KHTML, like Gecko) Version/18.4 Safari/605.1.15" version="26.2.13">
  <diagram id="ORyovXKRxXFvrW5-OJGk" name="1b">
    <mxGraphModel dx="544" dy="448" grid="1" gridSize="10" guides="1" tooltips="1" connect="1" arrows="1" fold="1" page="1" pageScale="1" pageWidth="1169" pageHeight="827" math="0" shadow="0">
      <root>
        <mxCell id="0" />
        <mxCell id="1" parent="0" />
        <mxCell id="5CCXZrM_Q9LhJRwF_CGn-67" value="Tulajdonos" style="swimlane;fontStyle=0;childLayout=stackLayout;horizontal=1;startSize=26;horizontalStack=0;resizeParent=1;resizeParentMax=0;resizeLast=0;collapsible=1;marginBottom=0;align=center;fontSize=14;fillColor=#fff2cc;strokeColor=#d6b656;" parent="1" vertex="1">
          <mxGeometry x="480" y="240" width="80" height="152" as="geometry">
            <mxRectangle x="480" y="240" width="110" height="30" as="alternateBounds" />
          </mxGeometry>
        </mxCell>
        <mxCell id="5CCXZrM_Q9LhJRwF_CGn-68" value="&lt;u style=&quot;line-height: 0%;&quot;&gt;&lt;font style=&quot;font-size: 14px;&quot;&gt;Tkod&lt;/font&gt;&lt;/u&gt;" style="text;strokeColor=#996185;fillColor=#e6d0de;spacingLeft=4;spacingRight=4;overflow=hidden;rotatable=0;points=[[0,0.5],[1,0.5]];portConstraint=eastwest;fontSize=12;whiteSpace=wrap;html=1;strokeWidth=1;fontStyle=1;gradientColor=#d5739d;gradientDirection=north;opacity=60;" parent="5CCXZrM_Q9LhJRwF_CGn-67" vertex="1">
          <mxGeometry y="26" width="80" height="20" as="geometry" />
        </mxCell>
        <mxCell id="5CCXZrM_Q9LhJRwF_CGn-69" value="N(3)" style="text;strokeColor=none;fillColor=#f5f5f5;spacingLeft=4;spacingRight=4;overflow=hidden;rotatable=0;points=[[0,0.5],[1,0.5]];portConstraint=eastwest;fontSize=12;whiteSpace=wrap;html=1;perimeterSpacing=0;gradientColor=#b3b3b3;opacity=70;" parent="5CCXZrM_Q9LhJRwF_CGn-67" vertex="1">
          <mxGeometry y="46" width="80" height="24" as="geometry" />
        </mxCell>
        <mxCell id="5CCXZrM_Q9LhJRwF_CGn-70" value="" style="endArrow=none;html=1;rounded=0;entryX=0.995;entryY=0.984;entryDx=0;entryDy=0;entryPerimeter=0;exitX=0.001;exitY=-0.029;exitDx=0;exitDy=0;exitPerimeter=0;" parent="5CCXZrM_Q9LhJRwF_CGn-67" source="5CCXZrM_Q9LhJRwF_CGn-71" target="5CCXZrM_Q9LhJRwF_CGn-69" edge="1">
          <mxGeometry relative="1" as="geometry">
            <mxPoint y="70" as="sourcePoint" />
            <mxPoint x="80" y="69" as="targetPoint" />
          </mxGeometry>
        </mxCell>
        <mxCell id="5CCXZrM_Q9LhJRwF_CGn-71" value="Név" style="text;strokeColor=none;fillColor=#f8cecc;spacingLeft=4;spacingRight=4;overflow=hidden;rotatable=0;points=[[0,0.5],[1,0.5]];portConstraint=eastwest;fontSize=12;whiteSpace=wrap;html=1;gradientColor=#ea6b66;gradientDirection=north;" parent="5CCXZrM_Q9LhJRwF_CGn-67" vertex="1">
          <mxGeometry y="70" width="80" height="20" as="geometry" />
        </mxCell>
        <mxCell id="5CCXZrM_Q9LhJRwF_CGn-72" value="C(20)" style="text;strokeColor=none;fillColor=#f5f5f5;spacingLeft=4;spacingRight=4;overflow=hidden;rotatable=0;points=[[0,0.5],[1,0.5]];portConstraint=eastwest;fontSize=12;whiteSpace=wrap;html=1;gradientColor=#b3b3b3;" parent="5CCXZrM_Q9LhJRwF_CGn-67" vertex="1">
          <mxGeometry y="90" width="80" height="20" as="geometry" />
        </mxCell>
        <mxCell id="5CCXZrM_Q9LhJRwF_CGn-73" value="Cím" style="text;strokeColor=none;fillColor=#f8cecc;spacingLeft=4;spacingRight=4;overflow=hidden;rotatable=0;points=[[0,0.5],[1,0.5]];portConstraint=eastwest;fontSize=12;whiteSpace=wrap;html=1;gradientColor=#ea6b66;gradientDirection=north;" parent="5CCXZrM_Q9LhJRwF_CGn-67" vertex="1">
          <mxGeometry y="110" width="80" height="20" as="geometry" />
        </mxCell>
        <mxCell id="5CCXZrM_Q9LhJRwF_CGn-74" value="C(10)&lt;div&gt;&lt;br&gt;&lt;/div&gt;" style="text;strokeColor=none;fillColor=#f5f5f5;spacingLeft=4;spacingRight=4;overflow=hidden;rotatable=0;points=[[0,0.5],[1,0.5]];portConstraint=eastwest;fontSize=12;whiteSpace=wrap;html=1;gradientColor=#b3b3b3;" parent="5CCXZrM_Q9LhJRwF_CGn-67" vertex="1">
          <mxGeometry y="130" width="80" height="22" as="geometry" />
        </mxCell>
        <mxCell id="5CCXZrM_Q9LhJRwF_CGn-75" value="" style="endArrow=none;html=1;rounded=0;entryX=0.997;entryY=-0.014;entryDx=0;entryDy=0;entryPerimeter=0;" parent="5CCXZrM_Q9LhJRwF_CGn-67" target="5CCXZrM_Q9LhJRwF_CGn-73" edge="1">
          <mxGeometry relative="1" as="geometry">
            <mxPoint y="110" as="sourcePoint" />
            <mxPoint x="80" y="112" as="targetPoint" />
          </mxGeometry>
        </mxCell>
        <mxCell id="5CCXZrM_Q9LhJRwF_CGn-76" value="Autó" style="swimlane;fontStyle=0;childLayout=stackLayout;horizontal=1;startSize=26;horizontalStack=0;resizeParent=1;resizeParentMax=0;resizeLast=0;collapsible=1;marginBottom=0;align=center;fontSize=14;fillColor=#fff2cc;strokeColor=#d6b656;" parent="1" vertex="1">
          <mxGeometry x="660" y="240" width="90" height="214" as="geometry">
            <mxRectangle x="660" y="240" width="70" height="30" as="alternateBounds" />
          </mxGeometry>
        </mxCell>
        <mxCell id="5CCXZrM_Q9LhJRwF_CGn-77" value="&lt;u&gt;&lt;font style=&quot;line-height: 70%; font-size: 13px;&quot;&gt;Rendszám&lt;/font&gt;&lt;/u&gt;" style="text;strokeColor=#996185;fillColor=#e6d0de;spacingLeft=4;spacingRight=4;overflow=hidden;rotatable=0;points=[[0,0.5],[1,0.5]];portConstraint=eastwest;fontSize=12;whiteSpace=wrap;html=1;strokeWidth=1;fontStyle=1;gradientColor=#d5739d;gradientDirection=north;opacity=70;" parent="5CCXZrM_Q9LhJRwF_CGn-76" vertex="1">
          <mxGeometry y="26" width="90" height="20" as="geometry" />
        </mxCell>
        <mxCell id="5CCXZrM_Q9LhJRwF_CGn-78" value="(C7)" style="text;strokeColor=none;fillColor=#f5f5f5;spacingLeft=4;spacingRight=4;overflow=hidden;rotatable=0;points=[[0,0.5],[1,0.5]];portConstraint=eastwest;fontSize=12;whiteSpace=wrap;html=1;perimeterSpacing=0;gradientColor=#b3b3b3;opacity=60;" parent="5CCXZrM_Q9LhJRwF_CGn-76" vertex="1">
          <mxGeometry y="46" width="90" height="20" as="geometry" />
        </mxCell>
        <mxCell id="5CCXZrM_Q9LhJRwF_CGn-79" value="" style="endArrow=none;html=1;rounded=0;exitX=0.004;exitY=-0.02;exitDx=0;exitDy=0;exitPerimeter=0;" parent="5CCXZrM_Q9LhJRwF_CGn-76" source="5CCXZrM_Q9LhJRwF_CGn-80" edge="1">
          <mxGeometry relative="1" as="geometry">
            <mxPoint x="-1" y="70" as="sourcePoint" />
            <mxPoint x="90" y="69" as="targetPoint" />
          </mxGeometry>
        </mxCell>
        <mxCell id="5CCXZrM_Q9LhJRwF_CGn-80" value="Tipus" style="text;strokeColor=none;fillColor=#f8cecc;spacingLeft=4;spacingRight=4;overflow=hidden;rotatable=0;points=[[0,0.5],[1,0.5]];portConstraint=eastwest;fontSize=12;whiteSpace=wrap;html=1;gradientColor=#ea6b66;gradientDirection=north;" parent="5CCXZrM_Q9LhJRwF_CGn-76" vertex="1">
          <mxGeometry y="66" width="90" height="20" as="geometry" />
        </mxCell>
        <mxCell id="5CCXZrM_Q9LhJRwF_CGn-81" value="C(15)&lt;div&gt;&lt;br&gt;&lt;/div&gt;" style="text;strokeColor=none;fillColor=#f5f5f5;spacingLeft=4;spacingRight=4;overflow=hidden;rotatable=0;points=[[0,0.5],[1,0.5]];portConstraint=eastwest;fontSize=12;whiteSpace=wrap;html=1;gradientColor=#b3b3b3;" parent="5CCXZrM_Q9LhJRwF_CGn-76" vertex="1">
          <mxGeometry y="86" width="90" height="20" as="geometry" />
        </mxCell>
        <mxCell id="5CCXZrM_Q9LhJRwF_CGn-82" value="Szin" style="text;strokeColor=#b85450;fillColor=#f8cecc;spacingLeft=4;spacingRight=4;overflow=hidden;rotatable=0;points=[[0,0.5],[1,0.5]];portConstraint=eastwest;fontSize=12;whiteSpace=wrap;html=1;gradientColor=#ea6b66;gradientDirection=north;" parent="5CCXZrM_Q9LhJRwF_CGn-76" vertex="1">
          <mxGeometry y="106" width="90" height="20" as="geometry" />
        </mxCell>
        <mxCell id="5CCXZrM_Q9LhJRwF_CGn-83" value="C(9)" style="text;spacingLeft=4;spacingRight=4;overflow=hidden;rotatable=0;points=[[0,0.5],[1,0.5]];portConstraint=eastwest;fontSize=12;whiteSpace=wrap;html=1;fillColor=#f5f5f5;strokeColor=none;gradientColor=#b3b3b3;" parent="5CCXZrM_Q9LhJRwF_CGn-76" vertex="1">
          <mxGeometry y="126" width="90" height="30" as="geometry" />
        </mxCell>
        <mxCell id="5CCXZrM_Q9LhJRwF_CGn-90" value="" style="group;fillColor=#f5f5f5;strokeColor=none;gradientColor=#b3b3b3;" parent="5CCXZrM_Q9LhJRwF_CGn-76" vertex="1" connectable="0">
          <mxGeometry y="156" width="90" height="58" as="geometry" />
        </mxCell>
        <mxCell id="5CCXZrM_Q9LhJRwF_CGn-86" value="Kor" style="text;strokeColor=#d79b00;fillColor=#ffcd28;spacingLeft=4;spacingRight=4;overflow=hidden;rotatable=0;points=[[0,0.5],[1,0.5]];portConstraint=eastwest;fontSize=12;whiteSpace=wrap;html=1;gradientColor=#ffa500;gradientDirection=north;" parent="5CCXZrM_Q9LhJRwF_CGn-90" vertex="1">
          <mxGeometry width="90" height="38.666666666666664" as="geometry" />
        </mxCell>
        <mxCell id="5CCXZrM_Q9LhJRwF_CGn-87" value="N(2)" style="text;strokeColor=none;fillColor=#f5f5f5;spacingLeft=4;spacingRight=4;overflow=hidden;rotatable=0;points=[[0,0.5],[1,0.5]];portConstraint=eastwest;fontSize=12;whiteSpace=wrap;html=1;gradientColor=#b3b3b3;" parent="5CCXZrM_Q9LhJRwF_CGn-90" vertex="1">
          <mxGeometry y="29" width="90" height="29" as="geometry" />
        </mxCell>
        <mxCell id="5CCXZrM_Q9LhJRwF_CGn-84" value="" style="endArrow=none;html=1;rounded=0;entryX=0.997;entryY=-0.02;entryDx=0;entryDy=0;entryPerimeter=0;exitX=0.003;exitY=0.967;exitDx=0;exitDy=0;exitPerimeter=0;" parent="5CCXZrM_Q9LhJRwF_CGn-76" target="5CCXZrM_Q9LhJRwF_CGn-82" edge="1" source="5CCXZrM_Q9LhJRwF_CGn-81">
          <mxGeometry relative="1" as="geometry">
            <mxPoint y="110" as="sourcePoint" />
            <mxPoint x="80" y="110" as="targetPoint" />
          </mxGeometry>
        </mxCell>
        <mxCell id="5CCXZrM_Q9LhJRwF_CGn-88" value="" style="endArrow=none;html=1;rounded=0;exitX=-0.002;exitY=1;exitDx=0;exitDy=0;exitPerimeter=0;entryX=1.003;entryY=0;entryDx=0;entryDy=0;entryPerimeter=0;" parent="5CCXZrM_Q9LhJRwF_CGn-76" source="5CCXZrM_Q9LhJRwF_CGn-83" target="5CCXZrM_Q9LhJRwF_CGn-86" edge="1">
          <mxGeometry relative="1" as="geometry">
            <mxPoint x="5" y="149.93333333333334" as="sourcePoint" />
            <mxPoint x="85" y="149.93333333333334" as="targetPoint" />
          </mxGeometry>
        </mxCell>
        <mxCell id="5CCXZrM_Q9LhJRwF_CGn-85" value="&lt;div&gt;&lt;br&gt;&lt;/div&gt;" style="text;strokeColor=none;fillColor=none;spacingLeft=4;spacingRight=4;overflow=hidden;rotatable=0;points=[[0,0.5],[1,0.5]];portConstraint=eastwest;fontSize=12;whiteSpace=wrap;html=1;" parent="1" vertex="1">
          <mxGeometry x="700" y="650" width="80" height="20" as="geometry" />
        </mxCell>
        <mxCell id="GV9-aNYt4O0HFyw1Gfee-2" value="Integritási feltételek" style="shape=table;startSize=30;container=1;collapsible=0;childLayout=tableLayout;fontSize=16;fillColor=#eeeeee;strokeColor=#36393d;gradientColor=#4DC7CF;swimlaneFillColor=none;" parent="1" vertex="1">
          <mxGeometry x="175" y="50" width="190" height="100" as="geometry" />
        </mxCell>
        <mxCell id="GV9-aNYt4O0HFyw1Gfee-3" value="" style="shape=tableRow;horizontal=0;startSize=0;swimlaneHead=0;swimlaneBody=0;strokeColor=inherit;top=0;left=0;bottom=0;right=0;collapsible=0;dropTarget=0;fillColor=none;points=[[0,0.5],[1,0.5]];portConstraint=eastwest;fontSize=16;" parent="GV9-aNYt4O0HFyw1Gfee-2" vertex="1">
          <mxGeometry y="30" width="190" height="70" as="geometry" />
        </mxCell>
        <mxCell id="GV9-aNYt4O0HFyw1Gfee-4" value="NN" style="shape=partialRectangle;html=1;whiteSpace=wrap;connectable=0;strokeColor=#b85450;overflow=hidden;fillColor=#f8cecc;top=0;left=0;bottom=0;right=0;pointerEvents=1;fontSize=16;gradientColor=#ea6b66;gradientDirection=north;" parent="GV9-aNYt4O0HFyw1Gfee-3" vertex="1">
          <mxGeometry width="94" height="70" as="geometry">
            <mxRectangle width="94" height="70" as="alternateBounds" />
          </mxGeometry>
        </mxCell>
        <mxCell id="GV9-aNYt4O0HFyw1Gfee-5" value="&lt;font size=&quot;2&quot;&gt;0 &amp;gt; kredit &amp;lt; 6&lt;/font&gt;" style="shape=partialRectangle;html=1;whiteSpace=wrap;connectable=0;strokeColor=#d6b656;overflow=hidden;fillColor=#fff2cc;top=0;left=0;bottom=0;right=0;pointerEvents=1;fontSize=16;gradientColor=#ffd966;gradientDirection=north;" parent="GV9-aNYt4O0HFyw1Gfee-3" vertex="1">
          <mxGeometry x="94" width="96" height="70" as="geometry">
            <mxRectangle width="96" height="70" as="alternateBounds" />
          </mxGeometry>
        </mxCell>
        <mxCell id="w3WvvKIA-sHCdJctD3VD-1" value="" style="group;fillColor=default;strokeColor=none;gradientColor=#b3b3b3;" vertex="1" connectable="0" parent="1">
          <mxGeometry x="660" y="454" width="90" height="58" as="geometry" />
        </mxCell>
        <mxCell id="w3WvvKIA-sHCdJctD3VD-2" value="Ar" style="text;strokeColor=#82b366;fillColor=#d5e8d4;spacingLeft=4;spacingRight=4;overflow=hidden;rotatable=0;points=[[0,0.5],[1,0.5]];portConstraint=eastwest;fontSize=12;whiteSpace=wrap;html=1;gradientColor=#97d077;gradientDirection=north;" vertex="1" parent="w3WvvKIA-sHCdJctD3VD-1">
          <mxGeometry width="90" height="38.666666666666664" as="geometry" />
        </mxCell>
        <mxCell id="w3WvvKIA-sHCdJctD3VD-3" value="N(8)" style="text;strokeColor=default;fillColor=#f5f5f5;spacingLeft=4;spacingRight=4;overflow=hidden;rotatable=0;points=[[0,0.5],[1,0.5]];portConstraint=eastwest;fontSize=12;whiteSpace=wrap;html=1;gradientColor=#b3b3b3;" vertex="1" parent="w3WvvKIA-sHCdJctD3VD-1">
          <mxGeometry y="29" width="90" height="29" as="geometry" />
        </mxCell>
        <mxCell id="w3WvvKIA-sHCdJctD3VD-4" value="" style="group;fillColor=#f5f5f5;strokeColor=none;gradientColor=#b3b3b3;strokeWidth=2;" vertex="1" connectable="0" parent="1">
          <mxGeometry x="660" y="512" width="90" height="58" as="geometry" />
        </mxCell>
        <mxCell id="w3WvvKIA-sHCdJctD3VD-5" value="Tulaj" style="text;strokeColor=#d6b656;fillColor=#fff2cc;spacingLeft=4;spacingRight=4;overflow=hidden;rotatable=0;points=[[0,0.5],[1,0.5]];portConstraint=eastwest;fontSize=12;whiteSpace=wrap;html=1;gradientColor=#ffd966;gradientDirection=north;" vertex="1" parent="w3WvvKIA-sHCdJctD3VD-4">
          <mxGeometry width="90" height="50" as="geometry" />
        </mxCell>
        <mxCell id="w3WvvKIA-sHCdJctD3VD-6" value="N(3)" style="text;strokeColor=default;fillColor=#f5f5f5;spacingLeft=4;spacingRight=4;overflow=hidden;rotatable=0;points=[[0,0.5],[1,0.5]];portConstraint=eastwest;fontSize=12;whiteSpace=wrap;html=1;gradientColor=#b3b3b3;" vertex="1" parent="w3WvvKIA-sHCdJctD3VD-4">
          <mxGeometry y="30" width="90" height="28" as="geometry" />
        </mxCell>
        <mxCell id="w3WvvKIA-sHCdJctD3VD-23" value="" style="endArrow=none;dashed=1;html=1;rounded=0;" edge="1" parent="w3WvvKIA-sHCdJctD3VD-4">
          <mxGeometry width="50" height="50" relative="1" as="geometry">
            <mxPoint x="10" y="24.860000000000042" as="sourcePoint" />
            <mxPoint x="40" y="24.860000000000042" as="targetPoint" />
            <Array as="points">
              <mxPoint x="30" y="24.76" />
            </Array>
          </mxGeometry>
        </mxCell>
        <mxCell id="w3WvvKIA-sHCdJctD3VD-9" value="" style="shape=table;startSize=0;container=1;collapsible=0;childLayout=tableLayout;fontSize=16;" vertex="1" parent="1">
          <mxGeometry x="110" y="80" width="330" height="139" as="geometry" />
        </mxCell>
        <mxCell id="w3WvvKIA-sHCdJctD3VD-10" value="" style="shape=tableRow;horizontal=0;startSize=0;swimlaneHead=0;swimlaneBody=0;strokeColor=inherit;top=0;left=0;bottom=0;right=0;collapsible=0;dropTarget=0;fillColor=none;points=[[0,0.5],[1,0.5]];portConstraint=eastwest;fontSize=16;" vertex="1" parent="w3WvvKIA-sHCdJctD3VD-9">
          <mxGeometry width="330" height="71" as="geometry" />
        </mxCell>
        <mxCell id="w3WvvKIA-sHCdJctD3VD-11" value="NOT NULL" style="shape=partialRectangle;html=1;whiteSpace=wrap;connectable=0;strokeColor=#b85450;overflow=hidden;fillColor=#f8cecc;top=0;left=0;bottom=0;right=0;pointerEvents=1;fontSize=16;gradientColor=#ea6b66;" vertex="1" parent="w3WvvKIA-sHCdJctD3VD-10">
          <mxGeometry width="111" height="71" as="geometry">
            <mxRectangle width="111" height="71" as="alternateBounds" />
          </mxGeometry>
        </mxCell>
        <mxCell id="w3WvvKIA-sHCdJctD3VD-12" value="Primary Key" style="shape=partialRectangle;html=1;whiteSpace=wrap;connectable=0;strokeColor=#996185;overflow=hidden;fillColor=#e6d0de;top=0;left=0;bottom=0;right=0;pointerEvents=1;fontSize=16;gradientColor=#d5739d;opacity=70;" vertex="1" parent="w3WvvKIA-sHCdJctD3VD-10">
          <mxGeometry x="111" width="108" height="71" as="geometry">
            <mxRectangle width="108" height="71" as="alternateBounds" />
          </mxGeometry>
        </mxCell>
        <mxCell id="w3WvvKIA-sHCdJctD3VD-13" value="Foreign Key" style="shape=partialRectangle;html=1;whiteSpace=wrap;connectable=0;strokeColor=#d6b656;overflow=hidden;fillColor=#fff2cc;top=0;left=0;bottom=0;right=0;pointerEvents=1;fontSize=16;gradientColor=#ffd966;" vertex="1" parent="w3WvvKIA-sHCdJctD3VD-10">
          <mxGeometry x="219" width="111" height="71" as="geometry">
            <mxRectangle width="111" height="71" as="alternateBounds" />
          </mxGeometry>
        </mxCell>
        <mxCell id="w3WvvKIA-sHCdJctD3VD-14" value="" style="shape=tableRow;horizontal=0;startSize=0;swimlaneHead=0;swimlaneBody=0;strokeColor=inherit;top=0;left=0;bottom=0;right=0;collapsible=0;dropTarget=0;fillColor=none;points=[[0,0.5],[1,0.5]];portConstraint=eastwest;fontSize=16;" vertex="1" parent="w3WvvKIA-sHCdJctD3VD-9">
          <mxGeometry y="71" width="330" height="68" as="geometry" />
        </mxCell>
        <mxCell id="w3WvvKIA-sHCdJctD3VD-15" value="N &amp;gt; 0" style="shape=partialRectangle;html=1;whiteSpace=wrap;connectable=0;strokeColor=#d79b00;overflow=hidden;fillColor=#ffcd28;top=0;left=0;bottom=0;right=0;pointerEvents=1;fontSize=16;gradientColor=#ffa500;gradientDirection=north;" vertex="1" parent="w3WvvKIA-sHCdJctD3VD-14">
          <mxGeometry width="111" height="68" as="geometry">
            <mxRectangle width="111" height="68" as="alternateBounds" />
          </mxGeometry>
        </mxCell>
        <mxCell id="w3WvvKIA-sHCdJctD3VD-16" value="N = HUF &amp;amp;&amp;amp; &amp;nbsp;N &amp;gt; 0" style="shape=partialRectangle;html=1;whiteSpace=wrap;connectable=0;strokeColor=#82b366;overflow=hidden;fillColor=#d5e8d4;top=0;left=0;bottom=0;right=0;pointerEvents=1;fontSize=16;gradientColor=#97d077;" vertex="1" parent="w3WvvKIA-sHCdJctD3VD-14">
          <mxGeometry x="111" width="108" height="68" as="geometry">
            <mxRectangle width="108" height="68" as="alternateBounds" />
          </mxGeometry>
        </mxCell>
        <mxCell id="w3WvvKIA-sHCdJctD3VD-17" value="" style="shape=partialRectangle;html=1;whiteSpace=wrap;connectable=0;strokeColor=inherit;overflow=hidden;fillColor=none;top=0;left=0;bottom=0;right=0;pointerEvents=1;fontSize=16;" vertex="1" parent="w3WvvKIA-sHCdJctD3VD-14">
          <mxGeometry x="219" width="111" height="68" as="geometry">
            <mxRectangle width="111" height="68" as="alternateBounds" />
          </mxGeometry>
        </mxCell>
        <mxCell id="w3WvvKIA-sHCdJctD3VD-28" style="edgeStyle=orthogonalEdgeStyle;rounded=0;orthogonalLoop=1;jettySize=auto;html=1;entryX=0.03;entryY=0.276;entryDx=0;entryDy=0;entryPerimeter=0;" edge="1" parent="1" source="5CCXZrM_Q9LhJRwF_CGn-68" target="w3WvvKIA-sHCdJctD3VD-5">
          <mxGeometry relative="1" as="geometry" />
        </mxCell>
        <mxCell id="w3WvvKIA-sHCdJctD3VD-29" style="edgeStyle=orthogonalEdgeStyle;rounded=0;orthogonalLoop=1;jettySize=auto;html=1;entryX=-0.034;entryY=0.276;entryDx=0;entryDy=0;entryPerimeter=0;" edge="1" parent="1" source="5CCXZrM_Q9LhJRwF_CGn-68" target="w3WvvKIA-sHCdJctD3VD-5">
          <mxGeometry relative="1" as="geometry" />
        </mxCell>
        <mxCell id="w3WvvKIA-sHCdJctD3VD-30" style="edgeStyle=orthogonalEdgeStyle;rounded=0;orthogonalLoop=1;jettySize=auto;html=1;entryX=1;entryY=0.5;entryDx=0;entryDy=0;exitX=-0.018;exitY=0.276;exitDx=0;exitDy=0;exitPerimeter=0;" edge="1" parent="1" source="w3WvvKIA-sHCdJctD3VD-5" target="5CCXZrM_Q9LhJRwF_CGn-68">
          <mxGeometry relative="1" as="geometry" />
        </mxCell>
      </root>
    </mxGraphModel>
  </diagram>
</mxfile>
